<svg width="128" height="138" viewBox="0 0 128 138" fill="none" xmlns="http://www.w3.org/2000/svg">
<path d="M6.464 0L0 6.969L11.3871 28.1998L18.7717 27.0321L63.8474 75.6346L60.0025 79.6154C58.0332 81.7385 58.0332 84.9549 60.0025 87.078L62.0012 89.2382C63.9705 91.3613 66.9834 91.3613 68.4603 89.2382L74.3089 95.5385C73.8166 98.7231 74.3089 102.507 76.7705 105.161L103.385 133.69C108.8 139.529 117.662 139.529 123.077 133.69C129.477 127.321 129.418 117.799 124.002 111.96L97.5409 83.2618C95.0794 80.6079 91.5692 79.5464 88.6154 80.6079L82.1514 74.3077C83.6283 72.1846 83.6283 68.9363 82.1514 67.3387L80.3052 65.3536C79.8577 64.8504 79.3204 64.4501 78.7256 64.1766C78.1308 63.9031 77.4909 63.7621 76.8443 63.7621C76.1977 63.7621 75.5578 63.9031 74.963 64.1766C74.3682 64.4501 73.8309 64.8504 73.3834 65.3536L70.1538 68.8355L25.0782 20.2382L26.1514 12.2767L6.45908 0L6.464 0ZM102.464 0.164538C92.7508 -0.705923 79.872 6.23654 73.8461 12.2714C66.432 20.2648 67.6431 30.7156 73.536 40.8055L63.0794 52.0844L70.464 61.0385C74.4025 57.3231 80.2117 57.3231 84.1502 61.0385L86.1538 63.1934L86.6166 63.6923L90.9243 59.0481C99.8252 64.6901 109.09 65.5022 116.155 57.8857C123.047 50.9857 130.521 33.9692 127.074 23.8846L113.231 39.3088C111.262 41.4318 108.278 41.4318 106.309 39.3088L91.9975 23.8846C91.5308 23.4021 91.1595 22.8228 90.9058 22.1816C90.6521 21.5404 90.5213 20.8504 90.5213 20.1533C90.5213 19.4562 90.6521 18.7663 90.9058 18.125C91.1595 17.4838 91.5308 16.9045 91.9975 16.422L106.314 0.997846C105.083 0.530769 103.852 0.291923 102.464 0.164538ZM48.3102 66.3462L30.4591 85.5865C28.5408 85.1271 26.5803 84.9045 24.6154 84.9231C10.8308 84.9231 0 96.6 0 111.462C0 126.323 10.8308 138 24.6154 138C38.4 138 49.2308 126.323 49.2308 111.462C49.2308 108.739 48.832 106.122 48.1526 103.665L58.6142 92.3857L57.0781 90.2308C53.1397 85.9846 53.1692 79.5517 56.6154 75.3002L48.3052 66.3462H48.3102ZM86.464 90.5651C87.0794 90.5651 87.6603 90.6925 88.1526 91.2286L117.233 122.576C118.218 123.637 118.218 125.325 117.233 126.387C116.249 127.448 114.673 127.448 113.689 126.387L84.6178 95.0395C83.6332 93.978 83.6332 92.2901 84.6178 91.2286C85.1101 90.6978 85.8486 90.5651 86.464 90.5651ZM28.0025 97.6881L37.3858 107.81L33.9988 121.573L21.2332 125.224L11.8449 115.103L15.232 101.34L28.0025 97.6881Z" fill="#FFA726"/>
</svg>
